<svg width="94" height="20" viewBox="0 0 94 20" fill="none" xmlns="http://www.w3.org/2000/svg">
<path d="M9.2926 2.45218L10.6082 5.22896C10.8239 5.68353 11.2402 5.99857 11.722 6.07154L14.6643 6.51688C15.8774 6.70043 16.3618 8.25288 15.4839 9.14408L13.3542 11.3052C13.0057 11.6591 12.8466 12.169 12.9289 12.6687L13.4314 15.7206C13.6389 16.9789 12.3705 17.9383 11.2859 17.3444L8.65414 15.9043C8.22328 15.6682 7.70843 15.6682 7.27753 15.9043L4.64582 17.3453C3.56113 17.9392 2.29279 16.9788 2.50024 15.7215L3.0028 12.6697C3.08543 12.1697 2.92624 11.6594 2.57748 11.3052L0.448317 9.14383C-0.429598 8.25264 0.054849 6.70019 1.26791 6.51663L4.21021 6.0713C4.69198 5.99832 5.10833 5.68325 5.32397 5.22871L6.63908 2.45222C7.18222 1.30697 8.74949 1.30693 9.2926 2.45218Z" fill="#005461"/>
<path d="M28.4112 2.45218L29.7269 5.22896C29.9425 5.68353 30.3589 5.99857 30.8407 6.07154L33.783 6.51688C34.996 6.70043 35.4804 8.25288 34.6026 9.14408L32.4729 11.3052C32.1243 11.6591 31.9653 12.169 32.0475 12.6687L32.5501 15.7206C32.7575 16.9789 31.4892 17.9383 30.4045 17.3444L27.7728 15.9043C27.3419 15.6682 26.8271 15.6682 26.3962 15.9043L23.7645 17.3453C22.6798 17.9392 21.4114 16.9788 21.6189 15.7215L22.1214 12.6697C22.2041 12.1697 22.0449 11.6594 21.6961 11.3052L19.567 9.14383C18.6891 8.25264 19.1735 6.70019 20.3866 6.51663L23.3289 6.0713C23.8106 5.99832 24.227 5.68325 24.4426 5.22871L25.7577 2.45222C26.3009 1.30697 27.8681 1.30693 28.4112 2.45218Z" fill="#005461"/>
<path d="M47.5299 2.45218L48.8456 5.22896C49.0612 5.68353 49.4775 5.99857 49.9593 6.07154L52.9016 6.51688C54.1147 6.70043 54.5991 8.25288 53.7212 9.14408L51.5915 11.3052C51.243 11.6591 51.0839 12.169 51.1662 12.6687L51.6687 15.7206C51.8762 16.9789 50.6079 17.9383 49.5232 17.3444L46.8915 15.9043C46.4606 15.6682 45.9457 15.6682 45.5148 15.9043L42.8831 17.3453C41.7984 17.9392 40.5301 16.9788 40.7375 15.7215L41.2401 12.6697C41.3227 12.1697 41.1635 11.6594 40.8148 11.3052L38.6856 9.14383C37.8077 8.25264 38.2922 6.70019 39.5052 6.51663L42.4475 6.0713C42.9293 5.99832 43.3456 5.68325 43.5613 5.22871L44.8764 2.45222C45.4195 1.30697 46.9868 1.30693 47.5299 2.45218Z" fill="#005461"/>
<path d="M66.6485 2.45218L67.9642 5.22896C68.1798 5.68353 68.5962 5.99857 69.0779 6.07154L72.0202 6.51688C73.2333 6.70043 73.7177 8.25288 72.8398 9.14408L70.7101 11.3052C70.3616 11.6591 70.2026 12.169 70.2848 12.6687L70.7874 15.7206C70.9948 16.9789 69.7265 17.9383 68.6418 17.3444L66.0101 15.9043C65.5792 15.6682 65.0644 15.6682 64.6335 15.9043L62.0017 17.3453C60.9171 17.9392 59.6487 16.9788 59.8562 15.7215L60.3587 12.6697C60.4414 12.1697 60.2822 11.6594 59.9334 11.3052L57.8042 9.14383C56.9263 8.25264 57.4108 6.70019 58.6238 6.51663L61.5661 6.0713C62.0479 5.99832 62.4643 5.68325 62.6799 5.22871L63.995 2.45222C64.5381 1.30697 66.1054 1.30693 66.6485 2.45218Z" fill="#D1D9E2"/>
<path d="M85.7672 2.45218L87.0828 5.22896C87.2985 5.68353 87.7148 5.99857 88.1966 6.07154L91.1389 6.51688C92.3519 6.70043 92.8364 8.25288 91.9585 9.14408L89.8288 11.3052C89.4803 11.6591 89.3212 12.169 89.4035 12.6687L89.906 15.7206C90.1135 16.9789 88.8451 17.9383 87.7604 17.3444L85.1287 15.9043C84.6979 15.6682 84.183 15.6682 83.7521 15.9043L81.1204 17.3453C80.0357 17.9392 78.7674 16.9788 78.9748 15.7215L79.4774 12.6697C79.56 12.1697 79.4008 11.6594 79.0521 11.3052L76.9229 9.14383C76.045 8.25264 76.5294 6.70019 77.7425 6.51663L80.6848 6.0713C81.1666 5.99832 81.5829 5.68325 81.7985 5.22871L83.1137 2.45222C83.6568 1.30697 85.2241 1.30693 85.7672 2.45218Z" fill="#D1D9E2"/>
</svg>
