<?xml version="1.0" encoding="UTF-8" standalone="no"?>
<!DOCTYPE svg PUBLIC "-//W3C//DTD SVG 1.1//EN" "http://www.w3.org/Graphics/SVG/1.1/DTD/svg11.dtd">
<svg width="100%" height="100%" viewBox="0 0 1731 384" version="1.1" xmlns="http://www.w3.org/2000/svg" xmlns:xlink="http://www.w3.org/1999/xlink" xml:space="preserve" xmlns:serif="http://www.serif.com/" style="fill-rule:evenodd;clip-rule:evenodd;stroke-linejoin:round;stroke-miterlimit:2;">
    <g transform="matrix(1,0,0,1,-384.403,-1061.1)">
        <g>
            <g transform="matrix(0.865329,0,0,0.865329,104.102,194.599)">
                <path d="M499.168,1001.35C503.392,1014.18 507.934,1033.79 499.78,1041.95C487.174,1054.55 420.103,1084.89 437.356,1183.85C445.271,1229.25 478.023,1315.6 492.529,1314.93C497.494,1314.7 499.592,1311.74 499.305,1306.59C498.143,1285.74 485.557,1189.84 485.557,1189.84C485.354,1186.44 485.871,1183.02 487.119,1179.85C488.286,1176.87 490.068,1174.15 492.319,1171.88C493.909,1170.28 495.729,1168.91 497.71,1167.83C502.48,1165.23 508.123,1164.37 513.454,1165.42C515.368,1165.8 517.232,1166.43 518.991,1167.27C521.19,1168.32 523.221,1169.72 524.991,1171.4C526.972,1173.28 528.622,1175.5 529.842,1177.94C531.239,1180.74 532.043,1183.79 532.249,1186.91C532.249,1186.91 533.799,1283.49 538.006,1304.86C539.116,1310.5 544.271,1314.2 548.477,1314.27C552.612,1314.27 557.724,1310.98 558.929,1304.86C563.135,1283.49 564.685,1186.91 564.685,1186.91C564.891,1183.79 565.696,1180.74 567.093,1177.94C568.312,1175.5 569.963,1173.28 571.944,1171.4C573.714,1169.72 575.744,1168.32 577.943,1167.27C579.702,1166.43 581.567,1165.8 583.481,1165.42C588.811,1164.37 594.454,1165.23 599.225,1167.83C601.205,1168.91 603.026,1170.28 604.616,1171.88C606.866,1174.15 608.648,1176.87 609.816,1179.85C611.064,1183.02 611.581,1186.44 611.377,1189.84C611.377,1189.84 598.792,1285.74 597.63,1306.59C597.343,1311.74 599.441,1314.7 604.405,1314.93C618.911,1315.6 651.664,1229.25 659.578,1183.85C676.831,1084.89 609.761,1054.55 597.155,1041.95C589,1033.79 593.542,1014.18 597.766,1001.35C698.006,1023.83 773.01,1113.45 773.01,1220.45C773.01,1344.38 672.396,1445 548.467,1445C424.539,1445 323.924,1344.38 323.924,1220.45C323.924,1113.45 398.928,1023.83 499.168,1001.35ZM451.954,1350.7C480.018,1378.77 516.172,1389.05 548.313,1389.45C580.542,1389.85 615.212,1380.47 644.98,1350.7C649.837,1345.84 649.837,1337.96 644.98,1333.1C640.123,1328.24 632.237,1328.24 627.38,1333.1C603.138,1357.34 574.867,1364.89 548.621,1364.56C522.287,1364.24 492.549,1356.1 469.555,1333.1C464.698,1328.24 456.811,1328.24 451.954,1333.1C447.097,1337.96 447.097,1345.84 451.954,1350.7Z" style="fill:rgb(222,40,59);"/>
            </g>
            <g transform="matrix(6.19959,0,0,6.19959,807.845,1362.44)">
                <g>
                    <g transform="matrix(50,0,0,50,0,0)">
                        <path d="M0.068,0L0.068,-0.706L0.18,-0.706L0.458,-0.273L0.401,-0.273L0.678,-0.706L0.791,-0.706L0.791,0L0.634,0L0.634,-0.441L0.662,-0.434L0.481,-0.152L0.377,-0.152L0.197,-0.434L0.224,-0.441L0.224,0L0.068,0Z" style="fill:rgb(222,40,59);fill-rule:nonzero;"/>
                    </g>
                    <g transform="matrix(50,0,0,50,42.9,0)">
                        <path d="M0.257,0.01C0.212,0.01 0.172,-0.001 0.138,-0.023C0.102,-0.045 0.075,-0.075 0.055,-0.113C0.034,-0.151 0.024,-0.194 0.024,-0.243C0.024,-0.292 0.034,-0.335 0.055,-0.373C0.075,-0.411 0.102,-0.441 0.138,-0.463C0.172,-0.485 0.212,-0.496 0.257,-0.496C0.29,-0.496 0.319,-0.49 0.345,-0.477C0.372,-0.464 0.393,-0.447 0.41,-0.425C0.427,-0.402 0.436,-0.377 0.438,-0.348L0.438,-0.138C0.436,-0.109 0.427,-0.084 0.41,-0.062C0.394,-0.039 0.373,-0.022 0.346,-0.009C0.319,0.004 0.29,0.01 0.257,0.01ZM0.288,-0.128C0.321,-0.128 0.347,-0.139 0.367,-0.161C0.387,-0.182 0.397,-0.21 0.397,-0.243C0.397,-0.266 0.393,-0.286 0.384,-0.303C0.375,-0.32 0.362,-0.334 0.345,-0.344C0.329,-0.353 0.31,-0.358 0.289,-0.358C0.268,-0.358 0.249,-0.353 0.233,-0.344C0.216,-0.334 0.203,-0.32 0.194,-0.303C0.184,-0.286 0.179,-0.266 0.179,-0.243C0.179,-0.221 0.184,-0.201 0.193,-0.184C0.202,-0.167 0.215,-0.153 0.232,-0.143C0.249,-0.133 0.267,-0.128 0.288,-0.128ZM0.391,0L0.391,-0.131L0.414,-0.249L0.391,-0.367L0.391,-0.486L0.541,-0.486L0.541,0L0.391,0Z" style="fill:rgb(222,40,59);fill-rule:nonzero;"/>
                    </g>
                    <g transform="matrix(50,0,0,50,72.65,0)">
                        <path d="M0.375,0L0.375,-0.277C0.375,-0.302 0.367,-0.323 0.352,-0.339C0.336,-0.354 0.316,-0.362 0.292,-0.362C0.275,-0.362 0.261,-0.359 0.248,-0.352C0.235,-0.344 0.225,-0.335 0.218,-0.322C0.211,-0.309 0.207,-0.294 0.207,-0.277L0.148,-0.306C0.148,-0.344 0.156,-0.377 0.173,-0.406C0.19,-0.435 0.213,-0.457 0.243,-0.472C0.272,-0.488 0.306,-0.496 0.343,-0.496C0.379,-0.496 0.411,-0.488 0.439,-0.47C0.466,-0.454 0.488,-0.431 0.504,-0.403C0.52,-0.375 0.528,-0.344 0.528,-0.311L0.528,0L0.375,0ZM0.054,0L0.054,-0.486L0.207,-0.486L0.207,0L0.054,0Z" style="fill:rgb(222,40,59);fill-rule:nonzero;"/>
                    </g>
                    <g transform="matrix(50,0,0,50,101.25,0)">
                        <path d="M0.401,0.011C0.35,0.011 0.302,0.002 0.257,-0.017C0.212,-0.036 0.172,-0.062 0.139,-0.095C0.106,-0.128 0.08,-0.166 0.061,-0.211C0.042,-0.255 0.032,-0.303 0.032,-0.354C0.032,-0.405 0.042,-0.453 0.061,-0.497C0.08,-0.541 0.107,-0.58 0.141,-0.613C0.176,-0.646 0.216,-0.671 0.262,-0.69C0.308,-0.708 0.357,-0.717 0.41,-0.717C0.471,-0.717 0.526,-0.706 0.576,-0.684C0.625,-0.662 0.666,-0.632 0.699,-0.593L0.592,-0.486C0.569,-0.515 0.543,-0.537 0.512,-0.552C0.481,-0.567 0.447,-0.574 0.408,-0.574C0.367,-0.574 0.33,-0.565 0.297,-0.547C0.264,-0.528 0.239,-0.502 0.221,-0.469C0.202,-0.437 0.193,-0.398 0.193,-0.354C0.193,-0.31 0.202,-0.271 0.22,-0.238C0.238,-0.205 0.263,-0.179 0.294,-0.16C0.325,-0.141 0.361,-0.132 0.402,-0.132C0.443,-0.132 0.478,-0.14 0.507,-0.156C0.537,-0.171 0.559,-0.194 0.575,-0.224C0.59,-0.253 0.598,-0.289 0.598,-0.332L0.702,-0.262L0.387,-0.267L0.387,-0.4L0.758,-0.4L0.758,-0.377C0.758,-0.292 0.743,-0.221 0.713,-0.164C0.682,-0.106 0.64,-0.062 0.587,-0.033C0.533,-0.004 0.471,0.011 0.401,0.011Z" style="fill:rgb(222,40,59);fill-rule:nonzero;"/>
                    </g>
                    <g transform="matrix(50,0,0,50,140.5,0)">
                        <path d="M0.257,0.01C0.212,0.01 0.172,-0.001 0.138,-0.023C0.102,-0.045 0.075,-0.075 0.055,-0.113C0.034,-0.151 0.024,-0.194 0.024,-0.243C0.024,-0.292 0.034,-0.335 0.055,-0.373C0.075,-0.411 0.102,-0.441 0.138,-0.463C0.172,-0.485 0.212,-0.496 0.257,-0.496C0.29,-0.496 0.319,-0.49 0.345,-0.477C0.372,-0.464 0.393,-0.447 0.41,-0.425C0.427,-0.402 0.436,-0.377 0.438,-0.348L0.438,-0.138C0.436,-0.109 0.427,-0.084 0.41,-0.062C0.394,-0.039 0.373,-0.022 0.346,-0.009C0.319,0.004 0.29,0.01 0.257,0.01ZM0.288,-0.128C0.321,-0.128 0.347,-0.139 0.367,-0.161C0.387,-0.182 0.397,-0.21 0.397,-0.243C0.397,-0.266 0.393,-0.286 0.384,-0.303C0.375,-0.32 0.362,-0.334 0.345,-0.344C0.329,-0.353 0.31,-0.358 0.289,-0.358C0.268,-0.358 0.249,-0.353 0.233,-0.344C0.216,-0.334 0.203,-0.32 0.194,-0.303C0.184,-0.286 0.179,-0.266 0.179,-0.243C0.179,-0.221 0.184,-0.201 0.193,-0.184C0.202,-0.167 0.215,-0.153 0.232,-0.143C0.249,-0.133 0.267,-0.128 0.288,-0.128ZM0.391,0L0.391,-0.131L0.414,-0.249L0.391,-0.367L0.391,-0.486L0.541,-0.486L0.541,0L0.391,0Z" style="fill:rgb(222,40,59);fill-rule:nonzero;"/>
                    </g>
                    <g transform="matrix(50,0,0,50,170.25,0)">
                        <path d="M0.375,0L0.375,-0.277C0.375,-0.302 0.367,-0.323 0.352,-0.339C0.336,-0.354 0.316,-0.362 0.292,-0.362C0.275,-0.362 0.261,-0.359 0.248,-0.352C0.235,-0.344 0.225,-0.335 0.218,-0.322C0.211,-0.309 0.207,-0.294 0.207,-0.277L0.148,-0.306C0.148,-0.344 0.156,-0.377 0.173,-0.406C0.19,-0.435 0.213,-0.457 0.243,-0.472C0.272,-0.488 0.306,-0.496 0.343,-0.496C0.379,-0.496 0.411,-0.488 0.439,-0.47C0.466,-0.454 0.488,-0.431 0.504,-0.403C0.52,-0.375 0.528,-0.344 0.528,-0.311L0.528,0L0.375,0ZM0.054,0L0.054,-0.486L0.207,-0.486L0.207,0L0.054,0Z" style="fill:rgb(222,40,59);fill-rule:nonzero;"/>
                    </g>
                    <g transform="matrix(50,0,0,50,198.85,0)">
                        <path d="M0.15,0.011C0.124,0.011 0.102,0.002 0.085,-0.016C0.068,-0.034 0.059,-0.056 0.059,-0.081C0.059,-0.108 0.068,-0.13 0.085,-0.148C0.102,-0.165 0.124,-0.174 0.15,-0.174C0.177,-0.174 0.199,-0.165 0.216,-0.148C0.233,-0.13 0.241,-0.108 0.241,-0.081C0.241,-0.056 0.233,-0.034 0.216,-0.016C0.199,0.002 0.177,0.011 0.15,0.011Z" style="fill:rgb(222,40,59);fill-rule:nonzero;"/>
                    </g>
                </g>
            </g>
        </g>
    </g>
</svg>
